<?xml version="1.0" encoding="UTF-8"?>
<svg id="Layer_1" data-name="Layer 1" xmlns="http://www.w3.org/2000/svg" viewBox="0 0 377.64 90.94">
  <defs>
    <style>
      .cls-1 {
        fill: #1b6a87;
        stroke-width: 0px;
      }
    </style>
  </defs>
  <polygon class="cls-1" points="82.96 10.71 76.16 3.91 71.99 3.91 4.88 71.02 10.82 85.37 14.21 85.37 85.96 13.72 82.96 10.71"/>
  <polygon class="cls-1" points="133.03 13.66 133 13.69 123.23 3.91 119.06 3.91 51.95 71.02 57.9 85.37 61.28 85.37 116.21 30.51 116.21 85.37 133.03 85.37 133.03 13.72 133.03 13.72 133.03 13.72 133.03 13.66"/>
  <path class="cls-1" d="M195.49,20.77c-4.55-5.6-12.23-9.12-20.16-9.12-20.16,0-35.95,16.09-35.95,36.64s11.82,37.84,33.96,37.84c10,0,17.59-6.83,22.15-12.81v11.89h18.29V14.54l-18.29-2.01v8.24ZM176.35,68.12c-12.02,0-18.11-10.28-18.11-19.82,0-11.12,7.39-19.82,18.11-19.82,9.74,0,18.7,5.38,18.7,19.96,0,8.51-2.35,19.68-18.7,19.68Z"/>
  <path class="cls-1" d="M260.17,11.65c-8.45,0-15.68,5.71-19.69,12.77v-11.89l-18.29,2.01v70.67h18.29v-40.29c2.27-9.13,7.82-16.46,19.69-16.46,10.65,0,19,8.71,19,19.82v36.93h16.81v-36.93c0-20.54-15.73-36.64-35.81-36.64Z"/>
  <path class="cls-1" d="M337.76,11.61c-22.07,0-35.25,16.02-35.25,37.28s13.17,37.27,35.25,37.27,35.24-16.02,35.24-37.27-12.53-37.28-35.24-37.28ZM337.76,69.35c-12.73,0-16.4-12.72-16.4-20.46,0-8.84,3.62-21.48,16.4-21.48s16.4,12.64,16.4,21.48c0,7.74-2.88,20.46-16.4,20.46Z"/>
</svg>